<svg width="336" height="247" viewBox="0 0 336 247" fill="none" xmlns="http://www.w3.org/2000/svg">
<path d="M21.6766 108.001H32.4766V60.1212L38.4526 51.4092L64.7326 108.001H76.3966L45.6526 40.8252L73.6606 0.00121212H61.9246L32.4766 42.1932V0.00121212H21.6766V108.001ZM87.7637 108.001H98.9237L103.532 86.4012H130.388L134.996 108.001H146.156L122.756 0.00121212H111.236L87.7637 108.001ZM105.548 75.6012L116.996 19.7292L128.372 75.6012H105.548ZM194.969 108.001V0.00121212H184.169V108.001H194.969ZM239.664 0.00121212H228.864V108.001H269.544V97.2012H239.664V0.00121212ZM300.191 108.001V0.00121212H289.391V108.001H300.191ZM45.6526 230.305C53.3806 230.305 59.5726 227.857 64.2286 222.961C68.8846 218.065 71.2126 211.633 71.2126 203.665V144.337C71.2126 136.321 68.8846 129.889 64.2286 125.041C59.5726 120.145 53.3806 117.697 45.6526 117.697C37.9726 117.697 31.7806 120.145 27.0766 125.041C22.4206 129.889 20.0926 136.321 20.0926 144.337V203.665C20.0926 211.633 22.4206 218.065 27.0766 222.961C31.7806 227.857 37.9726 230.305 45.6526 230.305ZM45.6526 219.505C41.1886 219.505 37.6126 218.065 34.9246 215.185C32.2366 212.257 30.8926 208.417 30.8926 203.665V144.337C30.8926 139.585 32.2366 135.769 34.9246 132.889C37.6126 129.961 41.1886 128.497 45.6526 128.497C50.1166 128.497 53.6926 129.961 56.3806 132.889C59.0686 135.769 60.4126 139.585 60.4126 144.337V203.665C60.4126 208.417 59.0686 212.257 56.3806 215.185C53.6926 218.065 50.1166 219.505 45.6526 219.505ZM94.9423 228.001H105.742V183.505H121.582C125.422 183.505 128.47 184.657 130.726 186.961C133.03 189.265 134.182 192.313 134.182 196.105V228.001H144.982V196.105C144.982 188.473 141.934 182.833 135.838 179.185C141.934 174.721 144.982 168.001 144.982 159.025V144.481C144.982 137.137 142.846 131.233 138.574 126.769C134.302 122.257 128.638 120.001 121.582 120.001H94.9423V228.001ZM105.742 172.705V130.801H121.582C125.422 130.801 128.47 132.049 130.726 134.545C133.03 137.041 134.182 140.353 134.182 144.481V159.025C134.182 163.105 133.03 166.417 130.726 168.961C128.47 171.457 125.422 172.705 121.582 172.705H105.742ZM168.63 228.001H193.11C200.838 228.001 207.03 225.553 211.686 220.657C216.342 215.761 218.67 209.329 218.67 201.361V146.641C218.67 138.625 216.342 132.193 211.686 127.345C207.03 122.449 200.838 120.001 193.11 120.001H168.63V228.001ZM179.43 217.201V130.801H193.11C197.574 130.801 201.15 132.265 203.838 135.193C206.526 138.073 207.87 141.889 207.87 146.641V201.361C207.87 206.113 206.526 209.953 203.838 212.881C201.15 215.761 197.574 217.201 193.11 217.201H179.43ZM252.695 228.001V120.001H241.895V228.001H252.695ZM270.62 228.001H320.732V217.201H282.14L320.732 128.353V120.001H270.62V130.801H309.068L270.476 219.577L270.62 228.001Z" fill="black"/>
<rect x="4" y="81" width="328" height="145" stroke="black" stroke-width="8"/>
</svg>
