<svg width="392" height="225" viewBox="0 0 392 225" fill="none" xmlns="http://www.w3.org/2000/svg">
<rect width="392" height="225" fill="#FFFCF6"/>
<g style="mix-blend-mode:exclusion" filter="url(#filter0_ii)">
<path d="M12.1741 43.1178L68.6747 96.0937H64.5092L11.7469 46.6424V96.0937H8.75635V8.29892H11.7469V40.0204L59.1689 8.29892H64.4024L12.1741 43.1178ZM151.663 96.0937L130.729 47.39H99.7553L78.8213 96.0937H76.0443L113.854 8.29892H116.631L154.44 96.0937H151.663ZM100.93 44.8267H129.554L115.242 11.5031L100.93 44.8267ZM179.219 93.1031V96.0937H176.229V8.29892H178.899H179.219V43.545V93.1031ZM272.568 93.1031V96.0937H208.911H205.921V8.29892H208.911V93.1031H272.568ZM292.541 93.1031V96.0937H289.55V8.29892H292.22H292.541V43.545V93.1031ZM60.4506 214.516C55.8935 216.866 51.0516 218.041 45.9249 218.041C40.7982 218.041 35.9563 216.866 31.3993 214.516C27.127 212.451 23.1752 209.283 19.5438 205.01C12.3522 196.537 8.75635 186.213 8.75635 174.037C8.75635 162.003 12.3522 151.75 19.5438 143.276C23.2464 138.862 27.1982 135.658 31.3993 133.664C35.8851 131.385 40.727 130.246 45.9249 130.246C51.1228 130.246 55.9647 131.385 60.4506 133.664C64.6516 135.658 68.6035 138.862 72.3061 143.276C79.4977 151.75 83.0935 162.003 83.0935 174.037C83.0935 186.213 79.4977 196.537 72.3061 205.01C68.6747 209.283 64.7228 212.451 60.4506 214.516ZM21.6799 203.088C28.3731 211.063 36.4548 215.05 45.9249 215.05C55.3951 215.05 63.4768 211.063 70.17 203.088C76.8631 195.042 80.2097 185.358 80.2097 174.037C80.2097 162.715 76.8631 153.067 70.17 145.092C63.4768 137.117 55.3951 133.13 45.9249 133.13C36.4548 133.13 28.3731 137.117 21.6799 145.092C15.0579 153.067 11.7469 162.715 11.7469 174.037C11.7469 185.358 15.0579 195.042 21.6799 203.088ZM136.497 165.492L158.926 218.041H155.829L133.399 165.492C133.399 165.492 122.683 165.492 101.251 165.492V215.05V218.041H98.26V130.246H100.93H135.856C142.905 130.246 148.281 131.884 151.984 135.159C155.615 138.292 157.431 142.564 157.431 147.976C157.431 154.598 155.259 159.333 150.915 162.181C148.352 164.388 143.795 165.492 137.244 165.492H136.497ZM101.251 162.715H135.749C141.374 162.715 145.86 161.683 149.207 159.618C152.696 157.268 154.44 153.387 154.44 147.976C154.44 143.276 152.802 139.645 149.527 137.082C146.323 134.447 141.73 133.13 135.749 133.13H101.251V162.715ZM244.905 173.716C244.905 173.716 244.905 173.859 244.905 174.143C244.905 174.143 244.905 174.286 244.905 174.571C244.834 179.982 244.407 184.824 243.623 189.096C242.911 193.369 241.808 197.036 240.312 200.097C238.888 203.088 237.144 205.687 235.079 207.894C233.014 210.03 230.664 211.739 228.03 213.021C225.395 214.303 222.511 215.335 219.378 216.118C216.317 216.902 213.006 217.436 209.445 217.72C205.956 217.934 202.254 218.076 198.337 218.148C194.421 218.29 190.363 218.29 186.162 218.148C181.961 218.076 178.756 218.041 176.549 218.041V130.246H178.365C194.03 130.175 203.073 130.21 205.494 130.353C218.239 131.065 227.496 133.842 233.263 138.684C240.882 145.235 244.763 156.876 244.905 173.609V173.716ZM179.54 215.05C181.32 215.05 183.99 215.086 187.55 215.157C201.079 215.299 210.62 214.765 216.174 213.555C226.712 211.419 233.904 206.078 237.749 197.534C240.455 191.624 241.843 183.827 241.914 174.143C241.914 168.305 241.416 163.178 240.419 158.763C239.422 154.349 238.034 150.682 236.254 147.762C234.545 144.843 232.373 142.422 229.739 140.499C227.175 138.506 224.363 137.01 221.301 136.014C218.31 135.017 214.928 134.305 211.154 133.877C207.38 133.379 203.571 133.094 199.726 133.023C195.952 132.952 191.822 132.952 187.336 133.023C184.346 133.094 182.103 133.13 180.608 133.13H179.219L179.54 215.05ZM274.384 215.05V218.041H271.393V130.246H274.063H274.384V165.492V215.05ZM343.594 215.05H383.219V218.041H343.594H340.71H301.085V215.05L379.267 133.13H343.594H340.71H301.085V130.246H340.71H343.594H383.219V133.13L305.037 215.05H340.71H343.594Z" stroke="#00B2FF" stroke-opacity="0.2" stroke-width="8.42546" stroke-linecap="round" stroke-linejoin="round"/>
</g>
<defs>
<filter id="filter0_ii" x="3.70091" y="3.24364" width="383.731" height="220.066" filterUnits="userSpaceOnUse" color-interpolation-filters="sRGB">
<feFlood flood-opacity="0" result="BackgroundImageFix"/>
<feBlend mode="normal" in="SourceGraphic" in2="BackgroundImageFix" result="shape"/>
<feColorMatrix in="SourceAlpha" type="matrix" values="0 0 0 0 0 0 0 0 0 0 0 0 0 0 0 0 0 0 127 0" result="hardAlpha"/>
<feOffset dx="-0.842546" dy="1.68509"/>
<feGaussianBlur stdDeviation="0.421273"/>
<feComposite in2="hardAlpha" operator="arithmetic" k2="-1" k3="1"/>
<feColorMatrix type="matrix" values="0 0 0 0 1 0 0 0 0 1 0 0 0 0 1 0 0 0 0.5 0"/>
<feBlend mode="normal" in2="shape" result="effect1_innerShadow"/>
<feColorMatrix in="SourceAlpha" type="matrix" values="0 0 0 0 0 0 0 0 0 0 0 0 0 0 0 0 0 0 127 0" result="hardAlpha"/>
<feOffset dx="-0.842546" dy="-1.68509"/>
<feGaussianBlur stdDeviation="0.421273"/>
<feComposite in2="hardAlpha" operator="arithmetic" k2="-1" k3="1"/>
<feColorMatrix type="matrix" values="0 0 0 0 1 0 0 0 0 1 0 0 0 0 1 0 0 0 0.4 0"/>
<feBlend mode="normal" in2="effect1_innerShadow" result="effect2_innerShadow"/>
</filter>
</defs>
</svg>
