<svg id="visual" viewBox="0 0 900 600" width="900" height="600" xmlns="http://www.w3.org/2000/svg" xmlns:xlink="http://www.w3.org/1999/xlink" version="1.1"><path d="M0 460L21.5 463.5C43 467 86 474 128.8 477.5C171.7 481 214.3 481 257.2 482.7C300 484.3 343 487.7 385.8 482.2C428.7 476.7 471.3 462.3 514.2 456.8C557 451.3 600 454.7 642.8 456.2C685.7 457.7 728.3 457.3 771.2 457.2C814 457 857 457 878.5 457L900 457L900 601L878.5 601C857 601 814 601 771.2 601C728.3 601 685.7 601 642.8 601C600 601 557 601 514.2 601C471.3 601 428.7 601 385.8 601C343 601 300 601 257.2 601C214.3 601 171.7 601 128.8 601C86 601 43 601 21.5 601L0 601Z" fill="#fffcf6"></path><path d="M0 489L21.5 486.8C43 484.7 86 480.3 128.8 482.8C171.7 485.3 214.3 494.7 257.2 496.3C300 498 343 492 385.8 489.3C428.7 486.7 471.3 487.3 514.2 484.2C557 481 600 474 642.8 473.8C685.7 473.7 728.3 480.3 771.2 482.2C814 484 857 481 878.5 479.5L900 478L900 601L878.5 601C857 601 814 601 771.2 601C728.3 601 685.7 601 642.8 601C600 601 557 601 514.2 601C471.3 601 428.7 601 385.8 601C343 601 300 601 257.2 601C214.3 601 171.7 601 128.8 601C86 601 43 601 21.5 601L0 601Z" fill="#f4e4d0"></path><path d="M0 497L21.5 497.2C43 497.3 86 497.7 128.8 496.8C171.7 496 214.3 494 257.2 493.7C300 493.3 343 494.7 385.8 496.3C428.7 498 471.3 500 514.2 503.2C557 506.3 600 510.7 642.8 507.3C685.7 504 728.3 493 771.2 490.2C814 487.3 857 492.7 878.5 495.3L900 498L900 601L878.5 601C857 601 814 601 771.2 601C728.3 601 685.7 601 642.8 601C600 601 557 601 514.2 601C471.3 601 428.7 601 385.8 601C343 601 300 601 257.2 601C214.3 601 171.7 601 128.8 601C86 601 43 601 21.5 601L0 601Z" fill="#eec9ad"></path><path d="M0 504L21.5 503.3C43 502.7 86 501.3 128.8 504.8C171.7 508.3 214.3 516.7 257.2 517.5C300 518.3 343 511.7 385.8 507.8C428.7 504 471.3 503 514.2 503.5C557 504 600 506 642.8 508.5C685.7 511 728.3 514 771.2 515.5C814 517 857 517 878.5 517L900 517L900 601L878.5 601C857 601 814 601 771.2 601C728.3 601 685.7 601 642.8 601C600 601 557 601 514.2 601C471.3 601 428.7 601 385.8 601C343 601 300 601 257.2 601C214.3 601 171.7 601 128.8 601C86 601 43 601 21.5 601L0 601Z" fill="#e9ae90"></path><path d="M0 534L21.5 533.5C43 533 86 532 128.8 532.2C171.7 532.3 214.3 533.7 257.2 532C300 530.3 343 525.7 385.8 526C428.7 526.3 471.3 531.7 514.2 533.5C557 535.3 600 533.7 642.8 531.3C685.7 529 728.3 526 771.2 524.3C814 522.7 857 522.3 878.5 522.2L900 522L900 601L878.5 601C857 601 814 601 771.2 601C728.3 601 685.7 601 642.8 601C600 601 557 601 514.2 601C471.3 601 428.7 601 385.8 601C343 601 300 601 257.2 601C214.3 601 171.7 601 128.8 601C86 601 43 601 21.5 601L0 601Z" fill="#e4907a"></path><path d="M0 545L21.5 544.2C43 543.3 86 541.7 128.8 541.2C171.7 540.7 214.3 541.3 257.2 542.5C300 543.7 343 545.3 385.8 547C428.7 548.7 471.3 550.3 514.2 551C557 551.7 600 551.3 642.8 551.3C685.7 551.3 728.3 551.7 771.2 550.3C814 549 857 546 878.5 544.5L900 543L900 601L878.5 601C857 601 814 601 771.2 601C728.3 601 685.7 601 642.8 601C600 601 557 601 514.2 601C471.3 601 428.7 601 385.8 601C343 601 300 601 257.2 601C214.3 601 171.7 601 128.8 601C86 601 43 601 21.5 601L0 601Z" fill="#de706d"></path><path d="M0 553L21.5 554.2C43 555.3 86 557.7 128.8 557.8C171.7 558 214.3 556 257.2 556.2C300 556.3 343 558.7 385.8 558.7C428.7 558.7 471.3 556.3 514.2 554.8C557 553.3 600 552.7 642.8 552C685.7 551.3 728.3 550.7 771.2 550.8C814 551 857 552 878.5 552.5L900 553L900 601L878.5 601C857 601 814 601 771.2 601C728.3 601 685.7 601 642.8 601C600 601 557 601 514.2 601C471.3 601 428.7 601 385.8 601C343 601 300 601 257.2 601C214.3 601 171.7 601 128.8 601C86 601 43 601 21.5 601L0 601Z" fill="#d44e67"></path><path d="M0 578L21.5 576.8C43 575.7 86 573.3 128.8 572.8C171.7 572.3 214.3 573.7 257.2 573.3C300 573 343 571 385.8 570.2C428.7 569.3 471.3 569.7 514.2 570.2C557 570.7 600 571.3 642.8 571.7C685.7 572 728.3 572 771.2 571.8C814 571.7 857 571.3 878.5 571.2L900 571L900 601L878.5 601C857 601 814 601 771.2 601C728.3 601 685.7 601 642.8 601C600 601 557 601 514.2 601C471.3 601 428.7 601 385.8 601C343 601 300 601 257.2 601C214.3 601 171.7 601 128.8 601C86 601 43 601 21.5 601L0 601Z" fill="#c62368"></path></svg>