<svg id="visual" viewBox="0 0 900 600" width="900" height="600" xmlns="http://www.w3.org/2000/svg" xmlns:xlink="http://www.w3.org/1999/xlink" version="1.1"><rect x="0" y="0" width="900" height="600" fill="#FFFCF6"></rect><path d="M0 393L21.5 387.8C43 382.7 86 372.3 128.8 371.5C171.7 370.7 214.3 379.3 257.2 381C300 382.7 343 377.3 385.8 375.2C428.7 373 471.3 374 514.2 382.3C557 390.7 600 406.3 642.8 415.7C685.7 425 728.3 428 771.2 429C814 430 857 429 878.5 428.5L900 428L900 601L878.5 601C857 601 814 601 771.2 601C728.3 601 685.7 601 642.8 601C600 601 557 601 514.2 601C471.3 601 428.7 601 385.8 601C343 601 300 601 257.2 601C214.3 601 171.7 601 128.8 601C86 601 43 601 21.5 601L0 601Z" fill="#fffcf6"></path><path d="M0 452L21.5 440C43 428 86 404 128.8 402.8C171.7 401.7 214.3 423.3 257.2 434.7C300 446 343 447 385.8 440C428.7 433 471.3 418 514.2 416.2C557 414.3 600 425.7 642.8 429C685.7 432.3 728.3 427.7 771.2 417.7C814 407.7 857 392.3 878.5 384.7L900 377L900 601L878.5 601C857 601 814 601 771.2 601C728.3 601 685.7 601 642.8 601C600 601 557 601 514.2 601C471.3 601 428.7 601 385.8 601C343 601 300 601 257.2 601C214.3 601 171.7 601 128.8 601C86 601 43 601 21.5 601L0 601Z" fill="#f5e7d4"></path><path d="M0 467L21.5 464.3C43 461.7 86 456.3 128.8 455.2C171.7 454 214.3 457 257.2 449.3C300 441.7 343 423.3 385.8 421C428.7 418.7 471.3 432.3 514.2 442.2C557 452 600 458 642.8 457.2C685.7 456.3 728.3 448.7 771.2 448C814 447.3 857 453.7 878.5 456.8L900 460L900 601L878.5 601C857 601 814 601 771.2 601C728.3 601 685.7 601 642.8 601C600 601 557 601 514.2 601C471.3 601 428.7 601 385.8 601C343 601 300 601 257.2 601C214.3 601 171.7 601 128.8 601C86 601 43 601 21.5 601L0 601Z" fill="#efd0b5"></path><path d="M0 454L21.5 460C43 466 86 478 128.8 481.3C171.7 484.7 214.3 479.3 257.2 468.5C300 457.7 343 441.3 385.8 443.2C428.7 445 471.3 465 514.2 468C557 471 600 457 642.8 451.2C685.7 445.3 728.3 447.7 771.2 449.8C814 452 857 454 878.5 455L900 456L900 601L878.5 601C857 601 814 601 771.2 601C728.3 601 685.7 601 642.8 601C600 601 557 601 514.2 601C471.3 601 428.7 601 385.8 601C343 601 300 601 257.2 601C214.3 601 171.7 601 128.8 601C86 601 43 601 21.5 601L0 601Z" fill="#ebb89a"></path><path d="M0 475L21.5 479.7C43 484.3 86 493.7 128.8 490.8C171.7 488 214.3 473 257.2 465C300 457 343 456 385.8 462.3C428.7 468.7 471.3 482.3 514.2 487.5C557 492.7 600 489.3 642.8 485.8C685.7 482.3 728.3 478.7 771.2 475.8C814 473 857 471 878.5 470L900 469L900 601L878.5 601C857 601 814 601 771.2 601C728.3 601 685.7 601 642.8 601C600 601 557 601 514.2 601C471.3 601 428.7 601 385.8 601C343 601 300 601 257.2 601C214.3 601 171.7 601 128.8 601C86 601 43 601 21.5 601L0 601Z" fill="#e79f84"></path><path d="M0 493L21.5 493.5C43 494 86 495 128.8 498.5C171.7 502 214.3 508 257.2 511.2C300 514.3 343 514.7 385.8 511C428.7 507.3 471.3 499.7 514.2 500.2C557 500.7 600 509.3 642.8 506.8C685.7 504.3 728.3 490.7 771.2 490.8C814 491 857 505 878.5 512L900 519L900 601L878.5 601C857 601 814 601 771.2 601C728.3 601 685.7 601 642.8 601C600 601 557 601 514.2 601C471.3 601 428.7 601 385.8 601C343 601 300 601 257.2 601C214.3 601 171.7 601 128.8 601C86 601 43 601 21.5 601L0 601Z" fill="#e28474"></path><path d="M0 531L21.5 531.3C43 531.7 86 532.3 128.8 531.5C171.7 530.7 214.3 528.3 257.2 523.2C300 518 343 510 385.8 511.5C428.7 513 471.3 524 514.2 528.7C557 533.3 600 531.7 642.8 533.2C685.7 534.7 728.3 539.3 771.2 537.7C814 536 857 528 878.5 524L900 520L900 601L878.5 601C857 601 814 601 771.2 601C728.3 601 685.7 601 642.8 601C600 601 557 601 514.2 601C471.3 601 428.7 601 385.8 601C343 601 300 601 257.2 601C214.3 601 171.7 601 128.8 601C86 601 43 601 21.5 601L0 601Z" fill="#dc686b"></path><path d="M0 546L21.5 549.2C43 552.3 86 558.7 128.8 559.5C171.7 560.3 214.3 555.7 257.2 553.3C300 551 343 551 385.8 549.3C428.7 547.7 471.3 544.3 514.2 542.5C557 540.7 600 540.3 642.8 539.5C685.7 538.7 728.3 537.3 771.2 537C814 536.7 857 537.3 878.5 537.7L900 538L900 601L878.5 601C857 601 814 601 771.2 601C728.3 601 685.7 601 642.8 601C600 601 557 601 514.2 601C471.3 601 428.7 601 385.8 601C343 601 300 601 257.2 601C214.3 601 171.7 601 128.8 601C86 601 43 601 21.5 601L0 601Z" fill="#d34967"></path><path d="M0 572L21.5 574C43 576 86 580 128.8 578C171.7 576 214.3 568 257.2 563.2C300 558.3 343 556.7 385.8 560.3C428.7 564 471.3 573 514.2 573.2C557 573.3 600 564.7 642.8 563.3C685.7 562 728.3 568 771.2 571.7C814 575.3 857 576.7 878.5 577.3L900 578L900 601L878.5 601C857 601 814 601 771.2 601C728.3 601 685.7 601 642.8 601C600 601 557 601 514.2 601C471.3 601 428.7 601 385.8 601C343 601 300 601 257.2 601C214.3 601 171.7 601 128.8 601C86 601 43 601 21.5 601L0 601Z" fill="#c62368"></path></svg>