<svg id="visual" viewBox="0 0 900 600" width="900" height="600" xmlns="http://www.w3.org/2000/svg" xmlns:xlink="http://www.w3.org/1999/xlink" version="1.1">
<rect x="0" y="0" width="900" height="600" fill="#FFFCF6"></rect><path d="M0 481L21.5 477.7C43 474.3 86 467.7 128.8 462.3C171.7 457 214.3 453 257.2 453.5C300 454 343 459 385.8 465.5C428.7 472 471.3 480 514.2 481.7C557 483.3 600 478.7 642.8 477.8C685.7 477 728.3 480 771.2 482.8C814 485.7 857 488.3 878.5 489.7L900 491L900 601L878.5 601C857 601 814 601 771.2 601C728.3 601 685.7 601 642.8 601C600 601 557 601 514.2 601C471.3 601 428.7 601 385.8 601C343 601 300 601 257.2 601C214.3 601 171.7 601 128.8 601C86 601 43 601 21.5 601L0 601Z" fill="#fffcf6"></path><path d="M0 492L21.5 490C43 488 86 484 128.8 482.8C171.7 481.7 214.3 483.3 257.2 484.8C300 486.3 343 487.7 385.8 489.2C428.7 490.7 471.3 492.3 514.2 494.3C557 496.3 600 498.7 642.8 496.7C685.7 494.7 728.3 488.3 771.2 485.5C814 482.7 857 483.3 878.5 483.7L900 484L900 601L878.5 601C857 601 814 601 771.2 601C728.3 601 685.7 601 642.8 601C600 601 557 601 514.2 601C471.3 601 428.7 601 385.8 601C343 601 300 601 257.2 601C214.3 601 171.7 601 128.8 601C86 601 43 601 21.5 601L0 601Z" fill="#f4e4d0"></path><path d="M0 509L21.5 504.8C43 500.7 86 492.3 128.8 488.7C171.7 485 214.3 486 257.2 486.8C300 487.7 343 488.3 385.8 492.5C428.7 496.7 471.3 504.3 514.2 508.2C557 512 600 512 642.8 509.3C685.7 506.7 728.3 501.3 771.2 497.3C814 493.3 857 490.7 878.5 489.3L900 488L900 601L878.5 601C857 601 814 601 771.2 601C728.3 601 685.7 601 642.8 601C600 601 557 601 514.2 601C471.3 601 428.7 601 385.8 601C343 601 300 601 257.2 601C214.3 601 171.7 601 128.8 601C86 601 43 601 21.5 601L0 601Z" fill="#eec9ad"></path><path d="M0 502L21.5 503.2C43 504.3 86 506.7 128.8 507.8C171.7 509 214.3 509 257.2 510.5C300 512 343 515 385.8 514.3C428.7 513.7 471.3 509.3 514.2 508.2C557 507 600 509 642.8 511C685.7 513 728.3 515 771.2 515.8C814 516.7 857 516.3 878.5 516.2L900 516L900 601L878.5 601C857 601 814 601 771.2 601C728.3 601 685.7 601 642.8 601C600 601 557 601 514.2 601C471.3 601 428.7 601 385.8 601C343 601 300 601 257.2 601C214.3 601 171.7 601 128.8 601C86 601 43 601 21.5 601L0 601Z" fill="#e9ae90"></path><path d="M0 536L21.5 536C43 536 86 536 128.8 533.7C171.7 531.3 214.3 526.7 257.2 524.2C300 521.7 343 521.3 385.8 524.2C428.7 527 471.3 533 514.2 532.5C557 532 600 525 642.8 524.5C685.7 524 728.3 530 771.2 531.3C814 532.7 857 529.3 878.5 527.7L900 526L900 601L878.5 601C857 601 814 601 771.2 601C728.3 601 685.7 601 642.8 601C600 601 557 601 514.2 601C471.3 601 428.7 601 385.8 601C343 601 300 601 257.2 601C214.3 601 171.7 601 128.8 601C86 601 43 601 21.5 601L0 601Z" fill="#e4907a"></path><path d="M0 536L21.5 537.7C43 539.3 86 542.7 128.8 545.2C171.7 547.7 214.3 549.3 257.2 548.5C300 547.7 343 544.3 385.8 543.3C428.7 542.3 471.3 543.7 514.2 542.5C557 541.3 600 537.7 642.8 536.8C685.7 536 728.3 538 771.2 538.2C814 538.3 857 536.7 878.5 535.8L900 535L900 601L878.5 601C857 601 814 601 771.2 601C728.3 601 685.7 601 642.8 601C600 601 557 601 514.2 601C471.3 601 428.7 601 385.8 601C343 601 300 601 257.2 601C214.3 601 171.7 601 128.8 601C86 601 43 601 21.5 601L0 601Z" fill="#de706d"></path><path d="M0 558L21.5 558.7C43 559.3 86 560.7 128.8 559.7C171.7 558.7 214.3 555.3 257.2 554C300 552.7 343 553.3 385.8 555C428.7 556.7 471.3 559.3 514.2 558.8C557 558.3 600 554.7 642.8 552.8C685.7 551 728.3 551 771.2 553.2C814 555.3 857 559.7 878.5 561.8L900 564L900 601L878.5 601C857 601 814 601 771.2 601C728.3 601 685.7 601 642.8 601C600 601 557 601 514.2 601C471.3 601 428.7 601 385.8 601C343 601 300 601 257.2 601C214.3 601 171.7 601 128.8 601C86 601 43 601 21.5 601L0 601Z" fill="#d44e67"></path><path d="M0 572L21.5 572.3C43 572.7 86 573.3 128.8 573.5C171.7 573.7 214.3 573.3 257.2 573.3C300 573.3 343 573.7 385.8 573.7C428.7 573.7 471.3 573.3 514.2 573.8C557 574.3 600 575.7 642.8 575.2C685.7 574.7 728.3 572.3 771.2 571C814 569.7 857 569.3 878.5 569.2L900 569L900 601L878.5 601C857 601 814 601 771.2 601C728.3 601 685.7 601 642.8 601C600 601 557 601 514.2 601C471.3 601 428.7 601 385.8 601C343 601 300 601 257.2 601C214.3 601 171.7 601 128.8 601C86 601 43 601 21.5 601L0 601Z" fill="#c62368"></path></svg>